<?xml version="1.0" standalone="no"?>
<!DOCTYPE svg PUBLIC "-//W3C//DTD SVG 1.1//EN" "http://www.w3.org/Graphics/SVG/1.1/DTD/svg11.dtd" >
<svg xmlns="http://www.w3.org/2000/svg">
  <metadata>Created by iconfont</metadata>
  <defs>
  <font id="iconfont" horiz-adv-x="1024">
    <font-face
      font-family="iconfont"
      font-weight="400"
      font-stretch="normal"
      units-per-em="1024"
      ascent="896"
      descent="-128"
    />
      <missing-glyph />
      
      <glyph glyph-name="dianzan" unicode="&#58974;" d="M411.904 742.272c19.797333 63.232 54.186667 90.24 122.026667 70.656l1.706666-0.554667c19.84-6.101333 42.666667-17.706667 64.085334-37.162666 33.706667-30.72 53.76-73.301333 53.76-126.805334 0-47.786667-2.773333-77.312-10.88-110.805333l-0.256-0.938667h175.488c107.264 0 149.888-72.362667 122.922666-192.682666l-2.304-9.856-5.461333-18.005334-20.608-67.114666-9.642667-30.677334-9.173333-28.672-17.066667-51.626666-11.648-33.621334-7.210666-20.053333-9.984-26.368-6.101334-15.232c-29.525333-71.253333-90.453333-103.978667-170.112-94.592l-387.114666 28.8a587.690667 587.690667 0 0 1-7.381334 0.341333l-15.36 0.341334H218.026667l-12.501334 0.213333-9.984 0.426667-8.32 0.768-3.712 0.554666-7.125333 1.408-11.52 3.029334c-59.349333 17.621333-90.24 67.925333-90.24 139.605333v283.52c0 90.538667 54.954667 142.208 148.565333 142.208l75.776 0.042667 5.205334 3.968a293.632 293.632 0 0 1 72.234666 88.32l6.101334 11.946666c6.101333 12.544 11.093333 25.685333 15.829333 41.002667l0.768 2.602667z m88.661333-8.064c-1.834667 0.426667-2.645333-0.170667-3.541333-2.773333l-3.882667-14.933334-10.666666-38.442666-2.56-8.533334a366.933333 366.933333 0 0 0-20.565334-53.162666 387.754667 387.754667 0 0 0-72.618666-102.442667 333.141333 333.141333 0 0 0-49.28-42.026667l5.504 3.925334v-417.408l336.682666-25.344c41.898667-4.906667 65.621333 6.101333 80.213334 36.096l2.858666 6.229333 5.76 14.378667 9.514667 25.173333 6.912 19.285333 11.221333 32.469334 8.064 24.064 17.365334 53.76 19.2 61.354666 15.445333 50.858667c18.986667 76.074667 7.808 94.592-38.357333 94.592h-217.685334a53.632 53.632 0 0 0-50.730666 71.125333l2.176 6.4 3.328 10.922667c10.282667 35.754667 13.226667 59.136 13.226666 108.629333 0 48.426667-26.88 72.96-57.045333 82.261334l-3.712 1.152z m-242.944-270.122667h-34.389333c-47.616 0-63.232-14.72-63.232-56.917333v-283.52c0-38.016 9.941333-53.333333 33.792-59.008l1.493333-0.341333 3.754667-0.554667 5.12-0.426667 11.562667-0.256h28.586666l13.312-0.085333v401.066667z"  horiz-adv-x="1024" />
      
      <glyph glyph-name="aite" unicode="&#58963;" d="M652.63115234 137.03876952999997h50.20927735c125.53417969 41.84472656 198.05712891 140.878125 217.59082032 297.09492188 2.78789062 83.68857422-9.76640625 146.45478516-37.66113282 188.29511718C810.23925781 742.38457031 693.07402343 803.7515625 531.27880859 806.54033203c-58.57822266 2.79052734-128.69296875-2.36865234-200.85029296-37.65498047-147.42421875-72.10458985-214.80117187-202.24599609-225.9553711-347.30859375-5.57753906-80.89892578 6.97236327-157.60898438 37.66113281-230.14423828C211.87373047 46.37695312000005 323.45703125-30.333984379999947 476.88769531-38.70732422000003c136.6875-5.57666016 258.03369141 37.66201172 364.03769531 129.71777344l-46.02304687 50.21630859C669.36816406 38.00449218999995 532.67363281 8.715820310000026 384.83105469 53.34931641000003 256.50810547 109.14404296999999 186.76953125 215.14804688000004 175.60742187 371.36748047000003c2.78964844 69.73857422 19.52753906 133.89433594 50.21806641 192.47783203 61.36523438 111.58417969 160.15166016 181.43613281 297.08789063 179.93320313 201.52880859-2.21660156 311.03789062-100.42646484 330.56630859-251.06660157 2.79228516-139.47802734-47.42314453-232.93388672-150.63310547-280.35791015h-25.10947265c-19.52841797 13.95175781-26.50078125 33.47490234-20.92236329 58.584375L761.41953125 618.24609375h-83.68242188l-12.5578125-46.02832031-25.10595703 33.47226562c-69.73769531 47.42402343-142.26591797 48.81708985-217.58818359 4.18447266-66.94980469-50.21191406-110.18847655-113.67421875-129.71777344-190.38427735-19.52138672-76.71621094-18.13183594-139.48505859 4.18359376-188.30214843 22.31630859-48.81445313 61.37666016-77.41054688 117.16699218-85.77773438 64.16191406-5.57753906 121.3453125 18.12744141 171.55634766 71.13339845v-4.1888672c0-36.26015625 22.32246094-61.36611328 66.95683593-75.31523437z m-188.30039062 83.68945313l-54.39990234 4.18798828c-41.84121094 13.94472656-59.97392578 50.203125-54.39462891 108.78837889 22.31542969 139.47978516 82.29462891 218.98388672 179.92880859 238.51142579 58.58261719-2.79316406 92.05488281-25.10507812 100.42558594-66.94892579-8.36630859-145.06171875-65.54882813-239.90712891-171.55986328-284.53886717z m0 0"  horiz-adv-x="1024" />
      
      <glyph glyph-name="xiaolian" unicode="&#58885;" d="M512 832C264.576 832 64 631.424 64 384s200.576-448 448-448 448 200.576 448 448S759.424 832 512 832z m0-832c-212.064 0-384 171.936-384 384s171.936 384 384 384 384-171.936 384-384-171.936-384-384-384zM256 512a64 64 0 1 1 128 0 64 64 0 1 1-128 0zM640 512a64 64 0 1 1 128 0 64 64 0 1 1-128 0zM224 384c0-159.072 128.928-288 288-288s288 128.928 288 288H224z"  horiz-adv-x="1024" />
      
      <glyph glyph-name="new3" unicode="&#59233;" d="M736 448C753.92 448 768 462.08 768 480 768 497.92 753.92 512 736 512l-128 0C590.08 512 576 497.92 576 480l0-256C576 206.08 590.08 192 608 192l128 0c17.92 0 32 14.08 32 32 0 17.92-14.08 32-32 32L640 256 640 320l96 0C753.92 320 768 334.08 768 352 768 369.92 753.92 384 736 384L640 384 640 448 736 448zM480 510.08C462.08 510.08 448 496 448 478.72l0-158.72L313.6 497.28C305.28 508.8 291.2 513.28 277.76 508.8 264.96 504.32 256 492.16 256 478.72l0-254.72C256 206.72 270.08 192 288 192 305.92 192 320 206.72 320 224L320 383.36l134.4-177.92C460.8 197.12 470.4 192 480 192c3.2 0 7.04 0.64 10.24 1.92C503.04 198.4 512 210.56 512 224L512 478.72C512 496 497.92 510.08 480 510.08zM1344 704 192 704C121.6 704 64 646.4 64 576l0-448c0-70.4 57.6-128 128-128l1152 0c70.4 0 128 57.6 128 128L1472 576C1472 646.4 1414.4 704 1344 704zM1408 128c0-35.2-28.8-64-64-64L192 64c-35.2 0-64 28.8-64 64L128 576c0 35.2 28.8 64 64 64l1152 0c35.2 0 64-28.8 64-64L1408 128zM1251.2 512c-16 5.76-34.56-1.92-40.32-18.56l-65.28-172.8-65.28 172.8c-8.96 24.32-49.92 24.32-58.88 0l-65.28-172.8-65.28 172.8C885.12 510.08 867.2 518.4 850.56 512c-16.64-6.4-24.32-24.32-18.56-40.32l94.72-250.88c8.96-24.32 49.92-24.32 58.88 0l65.28 172.8 65.28-172.8c4.48-12.16 16.64-20.48 29.44-20.48 13.44 0 24.96 8.32 29.44 20.48l94.72 250.88C1276.16 488.32 1267.84 506.24 1251.2 512z"  horiz-adv-x="1536" />
      
      <glyph glyph-name="pinglun" unicode="&#58907;" d="M806.228341 651.682136l-0.677915-389.41938-141.015673 0.245365c-9.838205 0.017706-19.276743-1.874386-28.28779-5.688924-9.011046-3.815382-17.084479-9.272432-24.221983-16.35513l-100.19741-99.849177L411.15798 240.813986c-3.272375 3.836461-6.962967 7.122327-11.043106 9.857598-4.094474 2.733584-8.3247 4.918259-12.688991 6.581007-4.379468 1.646727-9.012733 3.026167-13.930149 4.107965-4.901396 1.096975-9.834832 1.656846-14.769955 1.679611l-141.001338 0.246208 0.677915 389.41938 587.795631-1.022775L806.228341 651.682136zM822.738616 725.449279L202.163585 726.52939c-15.845007 0.027825-29.388981-5.411518-40.618429-16.325619-11.228606-10.914944-16.857664-24.291968-16.884647-40.136975L143.922728 246.242369c-0.027825-15.846694 5.554016-29.255758 16.744679-40.202743s24.716087-16.440291 40.561936-16.468116l157.398628-0.272346 142.419564-143.709628c2.709132-2.732741 6.269874-4.110495 10.637538-4.118926 1.102878-0.001687 2.191421 0.264758 3.279963 0.799333l6.564144 3.283336 142.906078 143.213838 157.397785-0.274033c15.846694-0.026982 29.390667 5.419107 40.620958 16.325619 11.227762 10.908198 16.855978 24.29787 16.88296 40.144563l0.738624 423.823585c0.026982 15.845007-5.554859 29.242267-16.743835 40.195997-11.190663 10.952887-24.716929 16.440291-40.562779 16.467273L822.738616 725.450122zM292.672875 458.708972c0.023609 13.393888 4.828883 24.870388 14.416663 34.416853 9.570917 9.55321 20.937805 14.318854 34.055972 14.296088 5.456207-0.010118 10.657774-0.845708 15.573504-2.494121 4.901396-1.655159 9.414086-3.988233 13.522894-7.000067 4.093631-3.018578 7.650157-6.571732 10.639224-10.669579 2.97389-4.097004 5.290944-8.617282 6.952849-13.554934 1.645884-4.92922 2.456179-10.133317 2.432569-15.588681-0.035414-20.212671-9.346632-34.678238-27.965696-43.38827-6.564143-3.275748-13.678039-4.91067-21.34-4.898023-13.102991 0.022766-24.453857 4.828039-33.991048 14.407388C297.41491 433.821721 292.649267 445.315084 292.672875 458.708972L292.672875 458.708972zM463.187986 457.987211c0.016863 9.287609 2.222618 17.62327 6.618106 24.995179 4.365134 7.371065 10.264009 13.241273 17.650252 17.596288 7.386242 4.362604 15.587838 6.532102 24.62165 6.516082 9.018635-0.015178 17.214328-2.213343 24.584551-6.601243 7.386242-4.3879 13.249705-10.271598 17.603877-17.65784 4.355016-7.387086 6.532102-15.721903 6.516082-25.017101-0.022766-13.118169-4.828039-24.445426-14.414133-33.998637-9.586937-9.546465-21.073556-14.311266-34.459855-14.287657-13.401477 0.022766-24.870388 4.828039-34.422756 14.407388C467.93002 433.524922 463.166063 444.877475 463.187986 457.987211L463.187986 457.987211zM635.361626 458.112845c0.022766 13.393045 4.828039 24.870388 14.414977 34.416853 9.585251 9.55321 20.937805 14.318012 34.055973 14.295245 9.271589-0.016021 17.616524-2.221775 24.987589-6.609675 7.371908-4.380312 13.233684-10.270755 17.589543-17.65784 4.36935-7.386242 6.531259-15.721903 6.515239-25.009512-0.022766-13.118169-4.828883-24.446269-14.399799-33.99948-9.586094-9.545621-21.072713-14.311266-34.474189-14.287657-13.401477 0.016021-24.871231 4.821294-34.424441 14.408231-9.552367 9.586937-14.303677 21.072713-14.280068 34.4666L635.361626 458.112845zM635.361626 458.112845"  horiz-adv-x="1024" />
      
      <glyph glyph-name="xiazai" unicode="&#58982;" d="M793.25 102.75a35.15625 35.15625 0 0 0 0-70.3125H230.75a35.15625 35.15625 0 0 0 0 70.3125h562.5zM512 735.421875a35.15625 35.15625 0 0 0 35.15625-35.15625v-424.652343l168.398438 168.398437a35.15625 35.15625 0 0 0 52.664062-46.371094l-2.953125-3.304688-228.550781-228.691406a35.15625 35.15625 0 0 0-46.40625-2.953125l-3.304688 2.917969-228.339844 227.953125a35.15625 35.15625 0 0 0 46.335938 52.699219l3.304687-2.917969L476.84375 275.15625V700.265625a35.15625 35.15625 0 0 0 35.15625 35.15625z"  horiz-adv-x="1024" />
      
      <glyph glyph-name="fenxiang" unicode="&#59003;" d="M826.390625 534.328125l-117.1875 117.1875-0.46875 0.46875a46.875 46.875 0 0 1-65.8125-66.75l37.171875-37.171875H629.1875q-106.78125 0-182.34375-75.46875Q371.375 396.984375 371.375 290.25a46.875 46.875 0 0 1 93.75 0q0 67.96875 48.046875 116.015625Q561.21875 454.3125 629.1875 454.3125h50.90625l-37.171875-37.171875a46.875 46.875 0 1 1 66.328125-66.28125l117.1875 117.1875a46.875 46.875 0 0 1-0.046875 66.28125zM324.5 55.875h445.3125a46.875 46.875 0 1 1 0 93.75H324.5q-19.40625 0-33.140625 13.734375T277.625 196.5V524.625a46.875 46.875 0 0 1-93.75 0v-328.125q0-58.265625 41.203125-99.421875Q266.234375 55.875 324.5 55.875z"  horiz-adv-x="1024" />
      
      <glyph glyph-name="shoucang" unicode="&#58957;" d="M706.084644 384v-110.077858h110.077858v-69.522858H706.084644v-110.077858h-69.522857V204.399284H526.483929v69.522858h110.077858V384h69.522857zM470.552065 673.678574l94.145537-86.903572H816.162502v-137.597323h-69.522857v68.074465H537.515613l-94.145536 86.903572H277.360355v-440.311432h183.945895v-69.522858H207.837498V673.678574h262.714567z"  horiz-adv-x="1024" />
      
      <glyph glyph-name="tianjia" unicode="&#58981;" d="M512 721.5a37.5 37.5 0 0 0 37.5-37.5v-262.5h262.5a37.5 37.5 0 0 0 0-75h-262.5v-262.5a37.5 37.5 0 0 0-75 0v262.5H212a37.5 37.5 0 0 0 0 75h262.5V684a37.5 37.5 0 0 0 37.5 37.5z"  horiz-adv-x="1024" />
      
      <glyph glyph-name="bofang" unicode="&#60120;" d="M512 42.666667c-187.733333 0-341.333333 153.6-341.333333 341.333333s153.6 341.333333 341.333333 341.333333 341.333333-153.6 341.333333-341.333333-153.6-341.333333-341.333333-341.333333z m0 85.333333c140.8 0 256 115.2 256 256s-115.2 256-256 256-256-115.2-256-256 115.2-256 256-256z m128 256l-213.333333-128V512l213.333333-128z"  horiz-adv-x="1024" />
      
      <glyph glyph-name="erji" unicode="&#58906;" d="M902.144 399.104c-1.408 0.064-2.816 0.064-4.16 0.128-4.352 18.432-17.216 33.664-34.176 41.344-37.568 159.488-180.928 278.592-351.68 278.592-171.072 0-314.624-119.488-351.872-279.424a60.9024 60.9024 0 0 1-32.448-40.512c-1.408-0.064-2.816-0.064-4.16-0.128C55.552 394.24 1.792 337.472 1.792 268.096c0-69.312 53.76-126.08 121.856-131.008 1.408-0.064 2.816-0.064 4.16-0.128 6.336-26.688 30.4-46.72 58.944-46.72h10.944c33.344 0 60.608 27.264 60.608 60.608V385.344c0 26.368-17.088 48.896-40.704 57.152 36.864 127.872 154.88 221.76 294.464 221.76 139.776 0 257.92-94.08 294.592-222.272-22.912-8.704-39.296-30.848-39.296-56.64v-234.432c0-33.344 27.264-60.608 60.608-60.608h10.944c28.544 0 52.608 20.032 58.944 46.72 1.408 0.064 2.816 0.064 4.16 0.128 68.096 4.864 121.856 61.696 121.856 131.008 0.128 69.312-53.632 126.08-121.728 130.944z"  horiz-adv-x="1024" />
      
      <glyph glyph-name="youjiantou" unicode="&#58888;" d="M560 383.586C560 442.357 512.357 490 453.586 490H204.414C145.643 490 98 442.357 98 383.586v-0.172C98 324.643 145.643 277 204.414 277h249.172C512.357 277 560 324.643 560 383.414v0.172zM630.024 684.895l20.067-16.805 124.46-103.419L818 529.02v-0.146l39.008-33.527 24.734-21.15c22.165-18.618 35.789-41.557 41.386-65.588 5.395-23.169 2.94-47.343-7.045-69.656-7.398-16.532-19.033-32.047-34.867-45.347l-21.025-17.62a128.674 128.674 0 0 0-3.92-3.425l-40.2-33.659-42.484-35.575-118.372-99.341a133.759 133.759 0 0 0-5.123-4.078l-20.068-16.805c-36.162-30.236-79.744-36.785-117.069-22.211-24.069 9.397-45.542 27.555-60.722 53.889l-2.171 3.77c-5.856 13.007-9.497 27.58-10.563 43.322l-0.455-0.443s41.854 154.592 41.854 222.471-41.758 212.887-41.758 212.887c0.035 19.354 3.923 37.113 10.923 52.66l2.171 3.77c14.42 25.015 34.524 42.636 57.131 52.395a112.775 112.775 0 0 0 3.59 1.494c37.325 14.574 80.907 8.024 117.069-22.212z"  horiz-adv-x="1024" />
      
      <glyph glyph-name="yuanhuan" unicode="&#58911;" d="M512-128a512 512 0 1 0 512 512 512 512 0 0 0-512-512zM512 603.428571a219.428571 219.428571 0 1 1 219.428571-219.428571 219.428571 219.428571 0 0 1-219.428571 219.428571z"  horiz-adv-x="1024" />
      
      <glyph glyph-name="qianhou1" unicode="&#58944;" d="M311.3 432.7c11.7 0 23.4-5.9 35.2-14.6l401.4-395.5c20.5-20.5 20.5-49.8 0-70.3-17.6-20.5-49.8-20.5-70.3 0L276.2 347.7c-20.5 17.6-20.5 49.8 0 70.3 8.8 8.8 20.5 14.7 35.1 14.7z m0 0M706.8 831.1c11.7 0 23.4-5.9 35.2-14.6 20.5-20.5 20.5-49.8 0-70.3L346.5 347.7c-17.6-20.5-49.8-20.5-70.3 0-20.5 17.6-20.5 49.8 0 70.3L671.7 816.5c8.8 11.7 23.4 14.6 35.1 14.6z m0 0"  horiz-adv-x="1024" />
      
      <glyph glyph-name="qianhou2" unicode="&#58945;" d="M712.7 432.7c14.6 0 26.4-5.9 35.2-14.6 20.5-20.5 20.5-52.7 0-70.3L346.5-47.8c-20.5-20.5-52.7-20.5-70.3 0-20.5 20.5-20.5 49.8 0 70.3L677.6 418c11.6 8.8 23.4 14.7 35.1 14.7z m0 0M317.2 831.1c11.7 0 26.4-2.9 35.2-14.6l395.5-398.4c20.5-20.5 20.5-52.7 0-70.3-20.5-20.5-52.7-20.5-70.3 0L282 746.2c-20.5 20.5-20.5 49.8 0 70.3 11.7 8.8 23.5 14.6 35.2 14.6z m0 0"  horiz-adv-x="1024" />
      
      <glyph glyph-name="wuguan" unicode="&#60511;" d="M501.824 864C303.552 864 141.504 719.008 141.504 538.24c0-23.712 2.816-47.104 8.32-69.856l-51.008-114.208a32 32 0 0 1 24.704-44.736c54.272-7.744 76.672-31.168 76.672-77.312v-111.552a64 64 0 0 1 64-64h20.704a64 64 0 0 0 64-64V-64a32 32 0 0 1 32-32h345.6a32 32 0 0 1 0 64h-313.6v24.608a128 128 0 0 1-128 128h-20.736v111.552c0 65.664-32.192 110.688-91.2 131.136l39.872 89.28a31.968 31.968 0 0 1 1.568 21.792 233.088 233.088 0 0 0-8.896 63.904c0 143.712 131.936 261.76 296.32 261.76s296.32-118.016 296.32-261.76a32 32 0 0 1 64 0C862.144 719.008 700.064 864 501.824 864zM904 448a32 32 0 0 1-32-32v-360a32 32 0 0 1 64 0V416a32 32 0 0 1-32 32zM673.888 429.344c-11.744 25.568-48.416 24.64-58.816-1.536l-132.8-333.76a32 32 0 0 1 59.488-23.68l32.608 81.92c0.576-0.032 1.088-0.32 1.664-0.32h154.848l38.176-83.104a31.968 31.968 0 1 1 58.144 26.72l-153.312 333.76zM599.68 216l47.264 118.72 54.528-118.72H599.68z"  horiz-adv-x="1024" />
      
      <glyph glyph-name="dashang" unicode="&#59025;" d="M723.07624 656.643831c-17.756912-16.022945-37.442863-37.825781-59.070497-65.381416h113.237117c-1.647269-19.47643-2.470904-37.56388-2.470904-54.246094 0-15.421475 0.823635-35.150775 2.470904-59.184289h-64.286849v63.96715h-400.889703v-73.809222H247.777652c1.649075 25.021514 2.463679 46.39989 2.463679 64.120678 0 19.147699-0.814604 38.857131-2.463679 59.14997h123.073771c-19.606478 20.578222-38.48505 42.816357-56.632105 66.716211 16.066294 10.606102 32.139812 21.204979 48.2043 31.811081 24.736132-24.736132 46.50465-52.795702 65.303749-84.171485-15.240853-10.485085-27.548411-15.26614-36.904611-14.355807h90.760562c0 29.154137-0.807379 61.97128-2.431167 98.447819h66.718017c-1.621982-31.930291-2.429361-64.747435-2.429361-98.447819h59.106621c26.036608 38.282754 42.1896 69.477915 48.439108 93.587291 25.464037-11.84336 49.497551-21.244716 72.089704-28.204068zM715.699653 362.39675a953.32637 953.32637 0 0 1-2.47271-69.024555c0-23.643371 0.823635-47.476395 2.47271-71.500877h-64.281431V312.899199H373.60229v-100.882597H309.315441c1.649075 28.348564 2.47271 53.830664 2.47271 76.448104 0 22.56506-0.825441 47.207269-2.47271 73.930238l406.384212 0.001806zM545.870168 286.463418c-18.797293-55.826533-38.492275-92.304877-59.070497-109.445869-20.580028-17.142799-46.338479-31.984478-77.289801-44.516006-30.942291-12.54056-76.924945-22.957009-137.924481-31.245736-4.000769 17.209629-15.222791 37.590973-33.658841 61.153065 48.197075 1.988644 86.671288 6.571015 115.435283 13.763368 28.762188 7.186935 54.896331 19.398763 78.382561 36.62826 23.493455 17.236722 37.910673 48.249455 43.248043 93.041812 23.627115-6.457223 47.252424-12.921671 70.877733-19.378894zM688.637115 384.286285H336.377979c1.649075 26.697683 2.47271 49.723328 2.47271 69.069711 0 19.216335-0.825441 39.760239-2.47271 61.615456h352.259136v-130.685167z m-64.288656 47.026647v34.206124H400.664829v-34.206124h223.68363zM579.164152 246.771815c77.50474-30.306503 141.881901-62.533014 193.133288-96.684951-16.057263-14.615902-30.292053-30.06447-42.70979-46.356541-36.377196 26.777156-97.703657 57.585787-183.993833 92.443956 13.393094 19.899085 24.578991 36.76192 33.570335 50.597536z"  horiz-adv-x="1024" />
      
      <glyph glyph-name="douyinxiaohuohua" unicode="&#59035;" d="M867.961905 432.956952a397.165714 397.165714 0 0 1-94.744381 131.657143l-33.255619 30.476191a9.216 9.216 0 0 1-14.872381-3.803429l-14.823619-42.569143c-9.313524-26.770286-26.331429-54.125714-50.517334-80.944762a7.168 7.168 0 0 0-4.632381-2.243047 6.290286 6.290286 0 0 0-4.924952 1.657905 6.729143 6.729143 0 0 0-2.243048 5.558857c4.193524 68.754286-16.335238 146.334476-61.44 230.790095-37.205333 70.217143-88.990476 124.976762-153.6 163.108571l-47.299047 27.794286a9.167238 9.167238 0 0 1-13.653333-8.387048l2.486857-54.857142c1.657905-37.449143-2.633143-70.656-12.970667-98.157715a323.486476 323.486476 0 0 0-53.638095-93.184c-16.091429-19.504762-34.279619-37.205333-54.272-52.662857A403.017143 403.017143 0 0 1 138.922667 448.365714a397.458286 397.458286 0 0 1-9.752381-331.776 401.554286 401.554286 0 0 1 214.211047-212.114285 402.139429 402.139429 0 0 1 156.428191-31.305143 404.72381 404.72381 0 0 1 156.525714 31.158857 398.384762 398.384762 0 0 1 127.756191 85.333333A395.654095 395.654095 0 0 1 902.095238 271.847619a393.411048 393.411048 0 0 1-34.133333 161.109333zM729.478095 45.104762a324.022857 324.022857 0 0 0-229.717333-94.110476 324.022857 324.022857 0 0 0-229.668572 94.110476 317.44 317.44 0 0 0-94.939428 226.742857c0 49.737143 11.264 97.377524 33.304381 141.799619A323.291429 323.291429 0 0 0 300.860952 525.507048a397.945905 397.945905 0 0 1 66.950096 64.902095A406.674286 406.674286 0 0 1 434.322286 705.828571c6.38781 17.212952 11.02019 35.011048 13.848381 53.150477a347.136 347.136 0 0 0 69.924571-91.916191c38.180571-71.533714 55.734857-135.168 52.370286-189.342476a84.553143 84.553143 0 0 1 147.163428-61.976381c15.213714 17.066667 28.379429 34.377143 39.350858 52.175238 15.945143-20.48 29.354667-42.812952 39.936-66.803809 18.139429-40.667429 27.501714-84.699429 27.501714-129.219048a317.19619 317.19619 0 0 0-94.890667-226.742857z"  horiz-adv-x="1024" />
      
      <glyph glyph-name="odbc" unicode="&#59706;" d="M1024 656C1024 788.5 794.8 896 512 896S0 788.5 0 656v-176h0.1c-0.1-1.8-0.1-3.5-0.1-5.3 0-3.6 0.2-7.1 0.5-10.7H0v-170.7c0-1.8 0-3.6 0.1-5.3H0v-176c0-132.5 229.2-240 512-240s512 107.5 512 240V288h-0.1c0.1 1.8 0.1 3.5 0.1 5.3V464h-0.5c0.3 3.5 0.5 7.1 0.5 10.7 0 1.8 0 3.6-0.1 5.3h0.1V656z m-64-544c0-16.1-8-33.1-23.8-50.5-19.8-21.9-50.7-43.1-89.4-61.2-42.3-19.8-92.1-35.5-148-46.6C639.8-58.10000000000002 577-64 512-64s-127.8 5.9-186.8 17.6c-55.9 11.1-105.7 26.8-148 46.6-38.7 18.2-69.6 39.3-89.4 61.2C72 78.89999999999998 64 95.89999999999998 64 112v65.1c6.8-5.7 14.1-11.3 21.8-16.8 91.8-64.5 248.4-107 426.2-107s334.4 42.5 426.2 107c1.1 0.8 2.3 1.6 3.4 2.4 0.1 0.1 0.2 0.2 0.4 0.3 1 0.7 1.9 1.4 2.9 2.1 0.8 0.6 1.7 1.2 2.5 1.9 0.7 0.5 1.3 1 2 1.5 3.7 2.8 7.2 5.7 10.6 8.6V112z m0 181.3c0-15.4-7.3-31.6-21.8-48.3-0.6-0.7-1.3-1.5-2-2.2-12.5-13.9-29.5-27.4-50.1-40.1-11.9-7.4-25.1-14.4-39.3-21.1-42.3-19.8-92.1-35.5-148-46.6-59-11.7-121.9-17.6-186.8-17.6s-127.8 5.9-186.8 17.6c-55.9 11.1-105.7 26.8-148 46.6-14.2 6.7-27.3 13.7-39.3 21.1-20.6 12.7-37.6 26.3-50.1 40.1-0.7 0.7-1.3 1.5-2 2.2C71.3 261.70000000000005 64 277.9 64 293.29999999999995v65.1c6.8-5.7 14.1-11.3 21.8-16.8 91.8-64.5 248.4-107 426.2-107s334.4 42.5 426.2 107c7.7 5.4 15 11 21.8 16.8v-65.1z m0 181.4c0-15.4-7.3-31.6-21.8-48.3-0.6-0.7-1.3-1.5-2-2.2-12.5-13.9-29.5-27.4-50.1-40.1-11.9-7.4-25.1-14.4-39.3-21.1-42.3-19.8-92.1-35.5-148-46.6-59-11.7-121.9-17.6-186.8-17.6s-127.8 5.9-186.8 17.6c-55.9 11.1-105.7 26.8-148 46.6-14.2 6.7-27.4 13.7-39.3 21.1-20.6 12.7-37.6 26.3-50.1 40.1-0.7 0.7-1.3 1.5-2 2.2C71.3 443 64 459.3 64 474.7v65.1c6.8-5.7 14.1-11.3 21.8-16.8 91.8-64.5 248.4-107 426.2-107s334.4 42.5 426.2 107c7.7 5.4 15 11 21.8 16.8v-65.1z m-21.8 133c-0.6-0.7-1.3-1.5-2-2.2-12.5-13.9-29.5-27.4-50.1-40.1-11.9-7.4-25.1-14.4-39.3-21.1-42.3-19.8-92.1-35.5-148-46.6C639.8 485.9 577 480 512 480s-127.8 5.9-186.8 17.6c-55.9 11.1-105.7 26.8-148 46.6-14.2 6.7-27.3 13.7-39.3 21.1-20.6 12.7-37.6 26.3-50.1 40.1-0.7 0.7-1.3 1.5-2 2.2C71.3 624.4 64 640.6 64 656c0 16.1 8 33.1 23.8 50.5 19.8 21.9 50.7 43.1 89.4 61.2 42.3 19.8 92.1 35.5 148 46.6C384.2 826.1 447 832 512 832s127.8-5.9 186.8-17.6c55.9-11.1 105.7-26.8 148-46.6 38.7-18.2 69.6-39.3 89.4-61.2C952 689.1 960 672.1 960 656c0-15.4-7.3-31.6-21.8-48.3z"  horiz-adv-x="1024" />
      
      <glyph glyph-name="suijixunhuan" unicode="&#58896;" d="M906.24000001 205.93777777000003c-14.22222223 14.22222223-37.31911111 14.22222223-51.54133334 2e-8s-14.22222223-37.31911111 0-51.54133334l46.30755554-46.30755558c-72.2488889-0.34133334-228.23822222 31.40266667-360.44799998 278.98311114-43.008 80.55466667-93.75288889 148.82133333-150.64177779 202.75199998-47.21777779 44.71466668-98.98666667 80.09955555-153.82755557 104.90311111-96.93866667 43.91822222-175.67288889 42.66666668-197.51822219 41.30133335-20.0248889-1.36533333-35.27111111-18.65955555-33.90577778-38.68444445 1.36533333-20.0248889 18.65955555-35.27111111 38.68444442-33.90577778 12.51555555 0.79644446 79.18933333 2.95822222 162.70222224-34.92977776 107.74755556-48.81066668 198.76977779-141.65333334 270.33599998-275.68355557 46.19377778-86.5848889 99.78311113-156.89955556 158.94755557-208.896 48.58311114-42.66666668 101.03466667-73.15911113 155.98933335-90.90844445 42.21155556-13.53955556 79.64444445-17.40800001 108.43022222-17.40799999h0.34133333l-45.39733334-45.39733335c-14.22222223-14.22222223-14.22222223-37.31911111 0-51.54133332 7.05422222-7.05422222 16.38400001-10.69511111 25.71377778-10.69511111s18.65955555 3.52711113 25.71377777 10.69511111l102.51377779 102.51377778c8.30577779 8.30577779 12.97066667 19.45600002 12.97066665 31.1751111 0 11.83288889-4.55111111 22.86933334-12.85688888 31.17511111l-102.51377779 102.40000002zM442.14044445 308.33777777c-16.38400001 11.60533333-39.13955555 7.62311113-50.7448889-8.76088888-65.19466668-92.50133334-139.94666667-152.34844446-221.86666666-178.06222223-62.80533333-19.68355556-109.79555556-12.40177779-122.76622223-9.78488887-19.68355556 4.096-38.912-8.53333335-43.00799998-28.33066668-4.096-19.68355556 8.53333335-38.912 28.33066665-43.008 9.32977778-1.93422223 27.98933333-5.00622222 53.58933335-5.00622222 80.89600001 0 230.05866667 30.37866669 365.34044443 222.09422222 11.49155556 16.49777779 7.50933333 39.25333334-8.87466666 50.85866668zM548.52266668 484.01066668c6.82666667-5.80266668 15.13244446-8.64711111 23.43822219-8.53333335 10.35377779 0 20.59377779 4.43733334 27.87555558 12.97066667 68.26666667 80.78222222 147.00088889 134.82666668 234.04088889 160.54044446 27.07911111 7.96444445 50.74488889 11.83288889 69.17688887 13.53955555l-48.24177777-48.24177779c-14.22222223-14.22222223-14.22222223-37.31911111 0-51.54133335 7.05422222-7.05422222 16.38400001-10.69511111 25.71377777-10.6951111s18.65955555 3.52711113 25.71377778 10.6951111l102.51377779 102.5137778c8.30577779 8.30577779 12.8568889 19.45600002 12.8568889 31.17511111 0 11.83288889-4.55111111 22.86933334-12.8568889 31.17511111l-102.51377779 102.40000001c-14.22222223 14.22222223-37.31911111 14.22222223-51.54133332 0s-14.22222223-37.31911111 0-51.54133336l43.46311111-43.4631111c-22.07288889-1.93422223-49.60711111-6.37155555-80.78222223-15.24622223-45.056-12.8568889-89.08800001-32.65422223-130.73066668-58.8231111-51.31377779-32.31288889-99.32800001-74.63822223-142.44977774-125.61066666-12.97066667-15.47377778-11.03644446-38.34311113 4.32355555-51.31377779z"  horiz-adv-x="1024" />
      
      <glyph glyph-name="shidirenzheng" unicode="&#59516;" d="M511.24419 798.47619l9.728-7.875047 10.24-7.801905 6.339048-4.681143 7.216762-5.12 12.239238-8.387047 9.094095-5.973334 9.801143-6.217143 10.48381-6.41219 11.166476-6.534095 11.776-6.607238 6.119619-3.31581 12.678095-6.607238 13.287619-6.534095c56.368762-27.014095 126.878476-50.712381 202.776381-52.46781l9.142857-0.121905v-279.503238c-2.169905-162.279619-79.043048-263.92381-159.280762-325.973333l-10.483809-7.850667-5.241905-3.779047-10.459428-7.192381-10.410667-6.802286c-3.462095-2.194286-6.92419-4.315429-10.337524-6.363428l-10.24-5.973334-10.044952-5.607619-9.874286-5.193143-9.630476-4.827428-4.729905-2.267429-13.750857-6.314667-8.752762-3.754666-12.434286-5.046857-7.777524-2.974477-10.800761-3.900952-9.654858-3.218286-7.387428-2.31619-6.363429-1.877333-7.411809-2.023619L512-30.47619l-10.142476 2.438095-11.824762 3.34019-8.923429 2.779429-10.166857 3.388952-7.411809 2.608762-7.875048 2.925714-12.55619 4.973715-8.850286 3.705904a534.674286 534.674286 0 0 0-4.559238 1.999239l-9.337905 4.242285-9.606095 4.583619-9.849905 4.973715-10.069333 5.339428-5.095619 2.80381-10.288762 5.924571a494.713905 494.713905 0 0 0-15.676953 9.654857l-10.50819 6.948572-10.556953 7.387428-10.556952 7.801905c-78.969905 60.416-154.136381 158.96381-157.379048 316.099048L170.666667 384V663.722667c77.628952 0 148.821333 22.625524 205.848381 49.347047l13.409523 6.485334 12.824381 6.582857 6.192762 3.291428 11.946667 6.631619 11.288381 6.582858 10.678857 6.485333 9.97181 6.339047 9.264761 6.095239 8.557715 5.851428 11.434666 8.118857 9.654858 7.192381 11.946666 9.411048 7.558095 6.339047z m0.48762-91.550476l-4.924953-3.462095a726.454857 726.454857 0 0 0-59.66019-36.498286c-61.464381-33.694476-126.098286-57.977905-192.926477-69.290666l-10.410666-1.633524V384c0-122.148571 48.859429-209.310476 132.973714-271.701333l6.89981-4.998096a440.758857 440.758857 0 0 1 120.978285-59.977142l6.972953-2.096762 4.827428 1.462857 5.802667 1.950476c144.505905 48.932571 251.757714 150.503619 257.706667 326.363429l0.219428 9.313523v211.968l-10.727619 1.706667c-59.367619 10.24-117.564952 30.915048-173.787428 59.416381l-11.215239 5.802667a761.246476 761.246476 0 0 0-60.732952 35.718095l-11.995428 7.996952z m145.212952-172.470857l51.443809-51.98019-261.851428-259.218286-131.047619 130.998857 51.687619 51.736381 79.62819-79.579429 210.139429 208.042667z"  horiz-adv-x="1024" />
      
      <glyph glyph-name="wangyiyunyinyuemusic1193417easyiconnet" unicode="&#58960;" d="M604.71296 832.088747c-53.548373-19.667627-95.06816-77.038933-95.06816-132.222293 0-16.390827 3.822933-43.165013 8.741547-59.55584 4.911787-16.390827 7.645867-30.59712 6.557013-31.143253-0.546133-1.092267-18.03264-9.28768-38.792533-18.57536-72.669867-33.3312-124.576427-101.07904-134.956373-176.479573-18.029227-126.76096 60.101973-230.57408 173.202773-230.57408 72.666453 0 134.95296 43.165013 160.631467 110.36672 16.940373 45.89568 11.47904 104.905387-20.21376 204.89216-8.192 25.678507 54.64064-9.28768 95.617707-54.091093 50.26816-54.637227 68.297387-135.502507 46.987947-214.17984-19.124907-69.389653-77.03552-136.598187-146.428587-168.28416-184.674987-84.691627-385.737387 11.472213-440.920747 210.899627-20.763307 74.8544-13.66016 145.33632 22.401707 222.921387 27.86304 60.101973 86.326613 120.203947 146.97472 150.254933 48.626347 24.040107 58.463573 32.23552 62.83264 52.452693 3.826347 18.57536-8.741547 45.89568-25.678507 55.18336-36.061867 19.67104-118.019413-21.30944-192.8704-96.160427-68.84352-68.84352-101.625173-128.39936-119.657813-216.91392-38.792533-187.948373 57.91744-387.92192 227.84-470.429013 61.740373-30.59712 112.551253-42.06592 182.490453-42.06592 154.077867 0 289.57696 78.67392 355.689813 206.527147 32.781653 62.83264 40.977067 100.532907 37.700267 175.93344-2.73408 72.123733-10.92608 102.720853-40.98048 152.439467-49.718613 82.50368-134.406827 142.05952-216.364373 152.9856l-27.316907 3.280213-9.84064 32.781653c-13.653333 45.349547-12.56448 60.101973 4.37248 73.212587 18.029227 14.206293 37.700267 14.752427 62.286507 1.092267 46.441813-26.22464 54.64064-28.409173 73.216-22.398293 19.124907 6.007467 36.05504 30.047573 36.05504 51.357013 0 19.67104-26.76736 48.080213-63.924907 66.112853C696.507733 840.830293 639.68256 845.202773 604.71296 832.088747zM574.65856 435.968c19.12832-71.031467 20.76672-91.245227 9.291093-113.646933-18.57536-34.966187-72.666453-46.987947-99.44064-21.85216-22.401707 20.759893-29.50144 39.8848-29.50144 78.677333 0 40.434347 10.92608 67.20512 36.604587 90.699093 18.578773 17.483093 57.91744 38.2464 62.28992 33.327787C555.54048 500.985173 564.82816 470.934187 574.65856 435.968z"  horiz-adv-x="1024" />
      
    </font>
</defs>
</svg>
